<svg xmlns="http://www.w3.org/2000/svg" aria-hidden="true" style="width: 0; height: 0; position: absolute;"><symbol id="check" viewBox="0 0 8.486 6.004" preserveAspectRatio="xMidYMid slice"><path d="M7.65 0 3.31 4.33.83 1.84 0 2.68 3.31 6 8.48.83z"></path></symbol><symbol id="edit" viewBox="2.5 2.5 19 19" preserveAspectRatio="xMidYMid slice"><path d="m18 2-2.414 2.414 4 4L22 6zm-3.924 3.924L3 17v4h4L18.076 9.924z"></path></symbol><symbol id="plus" viewBox="0 0 15.967 15.967" preserveAspectRatio="xMidYMid slice"><path d="M7.95 1.45c1.29 0 2.55.38 3.63 1.1 1.07.72 1.91 1.74 2.4 2.93.5 1.19.62 2.51.37 3.77a6.5 6.5 0 0 1-1.79 3.35c-.91.91-2.07 1.53-3.34 1.79-1.27.25-2.58.12-3.77-.38a6.5 6.5 0 0 1-2.94-2.4 6.6 6.6 0 0 1-1.1-3.63c.01-1.73.7-3.39 1.92-4.61a6.53 6.53 0 0 1 4.62-1.92m0-1.45C6.37 0 4.83.48 3.52 1.36a7.98 7.98 0 0 0-3.37 8.2 8.1 8.1 0 0 0 2.19 4.08 8 8 0 0 0 4.09 2.17c1.55.31 3.15.15 4.61-.46a7.975 7.975 0 0 0 4.31-10.43A7.997 7.997 0 0 0 11.01.59C10.04.19 9-.01 7.95 0"></path><path d="M11.67 7.38H8.46V4.16H7.38v3.22H4.16v1.08h3.22v3.21h1.08V8.46h3.21z"></path></symbol><symbol id="rocket" viewBox="0 0 21.989 36.007" preserveAspectRatio="xMidYMid slice"><path fill="#4EA8DE" d="M10.99 2.93c3.13 3.97 4.8 8.86 4.74 13.88v1.2l1.03.63a6.4 6.4 0 0 1 2.8 3.52c-.42-.3-.85-.58-1.3-.84l-2.75-1.54-.5 3.12c-.04.27-.1.54-.17.81H7.13c-.11-.35-.2-.7-.29-1.07l-.62-2.82-2.54 1.41c-.42.24-.83.5-1.22.78a6.63 6.63 0 0 1 2.76-3.52l.98-.63v-1.11c.01-5 1.7-9.86 4.8-13.82zM11 0c-.16 0-.31.05-.44.16l-.06.05C6.37 4.76 4.08 10.64 4.06 16.74a8.8 8.8 0 0 0-3.67 4.77 8.67 8.67 0 0 0 .3 5.98 9.7 9.7 0 0 1 4.07-4.4c.18.77.42 1.52.71 2.25.04.14.12.27.24.36.12.08.26.13.41.14h9.94c.2 0 .4-.2.5-.49.29-.7.49-1.42.6-2.17a9.7 9.7 0 0 1 4.07 4.4c.86-1.88.99-4.01.37-5.99a8.56 8.56 0 0 0-3.72-4.75c.07-6.14-2.21-12.07-6.39-16.63a.9.9 0 0 0-.22-.16.7.7 0 0 0-.28-.05z"></path><path fill="#4EA8DE" d="M10.99 16.15c-.55 0-1.08-.16-1.54-.46s-.82-.72-1.03-1.22-.26-1.05-.16-1.59c.11-.53.37-1.02.76-1.4.38-.38.88-.65 1.42-.76.54-.1 1.1-.05 1.61.15.51.21.94.55 1.25 1s.48.98.48 1.52c.01.35-.05.7-.18 1.03s-.32.63-.57.88a2.763 2.763 0 0 1-1.9.83h-.14z"></path><path fill="#5E60CE" d="M14.87 27.59a1.38 1.38 0 0 0-.98.37c-.13.12-.23.27-.3.43a1.3 1.3 0 0 0-.11.51v4.16a1.38 1.38 0 0 0 1.39 1.37 1.38 1.38 0 0 0 1.39-1.37v-4.1c0-.18-.03-.35-.09-.52-.06-.16-.16-.31-.28-.44-.13-.13-.27-.23-.44-.3a1.3 1.3 0 0 0-.52-.11zM7.13 27.59a1.37 1.37 0 0 0-.99.36c-.14.12-.24.27-.32.43-.07.17-.11.34-.12.52v4.16a1.38 1.38 0 0 0 1.39 1.37 1.38 1.38 0 0 0 1.39-1.37v-4.1c.01-.18-.02-.35-.09-.52-.06-.16-.16-.31-.28-.44a1.2 1.2 0 0 0-.44-.3 1.3 1.3 0 0 0-.51-.11zM10.89 27.59c-.17 0-.35.03-.52.09-.16.07-.32.16-.45.28s-.23.27-.3.43a1.3 1.3 0 0 0-.11.51v5.73c0 .37.14.71.4.97s.62.4.98.4c.37 0 .73-.14.99-.4s.4-.6.4-.97v-5.64c.01-.17-.02-.35-.08-.51-.07-.17-.16-.32-.29-.44-.12-.13-.27-.23-.43-.3-.17-.07-.34-.11-.52-.11z"></path></symbol><symbol id="trash" viewBox="0 0 12.478 14" preserveAspectRatio="xMidYMid slice"><path d="M6.87 4.98H8.2v5.52H6.87zM4.13 4.98h1.33v5.52H4.13z"></path><path d="M12.47 2.16a.67.67 0 0 0-.13-.38.7.7 0 0 0-.33-.22.6.6 0 0 0-.18-.05H8.28c-.13-.44-.4-.82-.77-1.09C7.14.14 6.69 0 6.23 0s-.9.14-1.27.42c-.37.27-.64.65-.78 1.09H.63c-.05 0-.11.01-.17.03H.45c-.14.04-.26.13-.34.25s-.12.26-.11.41c.01.14.07.28.16.39.1.1.23.17.38.2l.71 9.74c.01.38.16.74.43 1.01.26.27.62.43 1 .46h7.1c.38-.02.74-.19 1.01-.46.26-.27.41-.63.43-1.01l.7-9.74c.16-.02.3-.09.4-.21q.15-.18.15-.42m-6.24-.95c.13 0 .26.03.38.08s.22.13.31.22H5.54c.09-.09.2-.17.31-.22.12-.05.25-.08.38-.08m3.55 11.58h-7.1c-.08 0-.21-.14-.23-.35l-.7-9.63h8.96l-.7 9.63c-.02.21-.14.35-.23.35"></path></symbol></svg>