<svg width="12.478027" height="14.000000" viewBox="0 0 12.478 14" fill="none" xmlns="http://www.w3.org/2000/svg" xmlns:xlink="http://www.w3.org/1999/xlink">
	<desc>
			Created with Pixso.
	</desc>
	<defs/>
	<path id="Vector" d="M6.87 4.98L8.2 4.98L8.2 10.5L6.87 10.5L6.87 4.98Z" fill="#808080" fill-opacity="1.000000" fill-rule="evenodd"/>
	<path id="Vector" d="M4.13 4.98L5.46 4.98L5.46 10.5L4.13 10.5L4.13 4.98Z" fill="#808080" fill-opacity="1.000000" fill-rule="evenodd"/>
	<path id="Vector" d="M12.47 2.16C12.47 2.03 12.42 1.89 12.34 1.78C12.26 1.68 12.14 1.6 12.01 1.56C11.95 1.53 11.89 1.52 11.83 1.51L8.28 1.51C8.15 1.07 7.88 0.69 7.51 0.42C7.14 0.14 6.69 0 6.23 0C5.77 0 5.33 0.14 4.96 0.42C4.59 0.69 4.32 1.07 4.18 1.51L0.63 1.51C0.58 1.51 0.52 1.52 0.46 1.54L0.45 1.54C0.31 1.58 0.19 1.67 0.11 1.79C0.03 1.91 -0.01 2.05 0 2.2C0.01 2.34 0.07 2.48 0.16 2.59C0.26 2.69 0.39 2.76 0.54 2.79L1.25 12.53C1.26 12.91 1.41 13.27 1.68 13.54C1.94 13.81 2.3 13.97 2.68 14L9.78 14C10.16 13.98 10.52 13.81 10.79 13.54C11.05 13.27 11.2 12.91 11.22 12.53L11.92 2.79C12.08 2.77 12.22 2.7 12.32 2.58C12.42 2.46 12.47 2.32 12.47 2.16ZM6.23 1.21C6.36 1.21 6.49 1.24 6.61 1.29C6.73 1.34 6.83 1.42 6.92 1.51L5.54 1.51C5.63 1.42 5.74 1.34 5.85 1.29C5.97 1.24 6.1 1.21 6.23 1.21ZM9.78 12.79L2.68 12.79C2.6 12.79 2.47 12.65 2.45 12.44L1.75 2.81L10.71 2.81L10.01 12.44C9.99 12.65 9.87 12.79 9.78 12.79Z" fill="#808080" fill-opacity="1.000000" fill-rule="nonzero"/>
</svg>
